<?xml version="1.0" encoding="UTF-8" standalone="no" ?>
<!DOCTYPE svg PUBLIC "-//W3C//DTD SVG 1.1//EN" "http://www.w3.org/Graphics/SVG/1.1/DTD/svg11.dtd">
<svg xmlns="http://www.w3.org/2000/svg" xmlns:xlink="http://www.w3.org/1999/xlink" version="1.1" width="24" height="24" viewBox="0 0 24 24" xml:space="preserve">
<desc>Created with Fabric.js 5.3.0</desc>
<defs>
</defs>
<g transform="matrix(1.1302774366 0 0 1.1302774366 12 12)" id="qhuVgXXD_wmZC5GNjSKhp"  >
<path style="stroke: rgb(255,255,255); stroke-width: 0; stroke-dasharray: none; stroke-linecap: butt; stroke-dashoffset: 0; stroke-linejoin: miter; stroke-miterlimit: 4; fill: rgb(27,139,37); fill-rule: nonzero; opacity: 1;"  transform=" translate(0, 0)" d="M 0 -10.5 C 5.796 -10.5 10.5 -5.796 10.5 0 C 10.5 5.796 5.796 10.5 0 10.5 C -5.796 10.5 -10.5 5.796 -10.5 0 C -10.5 -5.796 -5.796 -10.5 0 -10.5 z" stroke-linecap="round" />
</g>
<g transform="matrix(1 0 0 1 12 12.0789473684)" id="RJPhWCxg9dEili2RGnAm8"  >
<path style="stroke: rgb(255,255,255); stroke-width: 4; stroke-dasharray: none; stroke-linecap: butt; stroke-dashoffset: 0; stroke-linejoin: miter; stroke-miterlimit: 4; fill: rgb(255,255,255); fill-opacity: 0; fill-rule: nonzero; opacity: 1;"  transform=" translate(0, 0)" d="M 0 -9.11842 L 0 9.11842" stroke-linecap="round" />
</g>
<g transform="matrix(1 0 0 1 11.9407894737 12.0394736842)" id="XlutKR7M0MCIGka_KnvSW"  >
<path style="stroke: rgb(255,255,255); stroke-width: 4; stroke-dasharray: none; stroke-linecap: butt; stroke-dashoffset: 0; stroke-linejoin: miter; stroke-miterlimit: 4; fill: rgb(255,255,255); fill-opacity: 0; fill-rule: nonzero; opacity: 1;"  transform=" translate(0, 0)" d="M -8.64474 -0.03947 L 8.644730000000001 0.03948000000000001" stroke-linecap="round" />
</g>
</svg>