<?xml version="1.0" encoding="UTF-8" standalone="no" ?>
<!DOCTYPE svg PUBLIC "-//W3C//DTD SVG 1.1//EN" "http://www.w3.org/Graphics/SVG/1.1/DTD/svg11.dtd">
<svg xmlns="http://www.w3.org/2000/svg" xmlns:xlink="http://www.w3.org/1999/xlink" version="1.1" width="24" height="24" viewBox="0 0 24 24" xml:space="preserve">
<desc>Created with Fabric.js 5.3.0</desc>
<defs>
</defs>
<g transform="matrix(0.9521593348 0 0 0.9521593348 12.2892495551 11.7029094222)" id="MWDjUOHGmwHxI13pwMUAU"  >
<path style="stroke: rgb(0,0,0); stroke-width: 1; stroke-dasharray: none; stroke-linecap: butt; stroke-dashoffset: 0; stroke-linejoin: miter; stroke-miterlimit: 4; fill: rgb(255,255,255); fill-opacity: 0; fill-rule: nonzero; opacity: 1;"  transform=" translate(0, 0)" d="M -8.56579 6.73026 L 7.421050000000001 -11.230269999999997 L 10.263160000000001 -8.506589999999997 L -5.210519999999999 9.098670000000004 L -10.26315 11.230250000000003 z" stroke-linecap="round" />
</g>
<g transform="matrix(0.9798895348 0 0 0.9798895348 6.0423578208 19.2003536917)" id="t_xcdEB7qf9LRqWfHEdO-"  >
<path style="stroke: rgb(0,0,0); stroke-width: 1; stroke-dasharray: none; stroke-linecap: butt; stroke-dashoffset: 0; stroke-linejoin: miter; stroke-miterlimit: 4; fill: rgb(255,255,255); fill-opacity: 0; fill-rule: nonzero; opacity: 1;"  transform=" translate(0, 0)" d="M -1.75658 -1.125 L 1.75658 1.125" stroke-linecap="round" />
</g>
<g transform="matrix(1 0 0 1 10.1051529988 23.0956731982)" id="jBhk7tnyhsZWItpzTsAu5"  >
<path style="stroke: rgb(0,0,0); stroke-width: 1; stroke-dasharray: none; stroke-linecap: butt; stroke-dashoffset: 0; stroke-linejoin: miter; stroke-miterlimit: 4; fill: rgb(255,255,255); fill-opacity: 0; fill-rule: nonzero; opacity: 1;"  transform=" translate(0, 0)" d="M -3.23684 0 L 3.23684 0" stroke-linecap="round" />
</g>
<g transform="matrix(1 0 0 1 19.75 33.0526315789)" id="15PrTlWwgtzPt0aKz2qFx"  >
<path style="stroke: rgb(0,0,0); stroke-width: 1; stroke-dasharray: none; stroke-linecap: butt; stroke-dashoffset: 0; stroke-linejoin: miter; stroke-miterlimit: 4; fill: rgb(255,255,255); fill-opacity: 0; fill-rule: nonzero; opacity: 1;"  transform=" translate(0, 0)" d="M -3.23684 0 L 3.23684 0" stroke-linecap="round" />
</g>
<g transform="matrix(1 0 0 1 16.5394736842 23.0956731982)" id="v-_mIdB52dSciKYaz3aZy"  >
<path style="stroke: rgb(0,0,0); stroke-width: 1; stroke-dasharray: none; stroke-linecap: butt; stroke-dashoffset: 0; stroke-linejoin: miter; stroke-miterlimit: 4; fill: rgb(255,255,255); fill-opacity: 0; fill-rule: nonzero; opacity: 1;"  transform=" translate(0, 0)" d="M -2.13158 0 L 2.13158 0" stroke-linecap="round" />
</g>
<g transform="matrix(1 0 0 1 20.7828947368 23.0956731982)" id="9xkzBKiANI68erj6e5YwM"  >
<path style="stroke: rgb(0,0,0); stroke-width: 1; stroke-dasharray: none; stroke-linecap: butt; stroke-dashoffset: 0; stroke-linejoin: miter; stroke-miterlimit: 4; fill: rgb(255,255,255); fill-opacity: 0; fill-rule: nonzero; opacity: 1;"  transform=" translate(0, 0)" d="M -0.65132 0 L 0.65131 0" stroke-linecap="round" />
</g>
</svg>